<svg xmlns="http://www.w3.org/2000/svg" viewBox="0 0 100 100" xml:space="preserve">
    <path d="M0 0v100h100V0H0zm34 80.5h36-36z" fill="#b3b3b3" />
    <path fill="#4d4d4d" d="M50 49.6c-8.4 0-15.2-6.8-15.2-15.2S41.6 19.2 50 19.2c8.4 0 15.2 6.8 15.2 15.2S58.4 49.6 50 49.6zm0-26.1c-6 0-11 4.9-11 11s4.9 11 11 11 11-4.9 11-11-5-11-11-11zM75.5 80.8h-51l-.1-2.1V78c0-14.1 11.5-25.6 25.6-25.6 14.1 0 25.6 11.5 25.6 25.6v.7l-.1 2.1zm-46.8-4.3h42.7c-.8-11.1-10-19.9-21.3-19.9s-20.7 8.8-21.4 19.9z" />
</svg>
